<mxfile host="app.diagrams.net" agent="Mozilla/5.0 (Macintosh; Intel Mac OS X 10_15_7) AppleWebKit/605.1.15 (KHTML, like Gecko) Version/18.1.1 Safari/605.1.15" version="24.9.2">
  <diagram name="Page-1" id="zJpCnDcPNRlQ80Xu1xCc">
    <mxGraphModel dx="3915" dy="830" grid="1" gridSize="10" guides="1" tooltips="1" connect="1" arrows="1" fold="1" page="1" pageScale="1" pageWidth="827" pageHeight="1169" math="0" shadow="0">
      <root>
        <mxCell id="0" />
        <mxCell id="1" parent="0" />
        <mxCell id="cEOoGB9jimii8mQ0SRFu-1" value="" style="ellipse;whiteSpace=wrap;html=1;aspect=fixed;" vertex="1" parent="1">
          <mxGeometry x="374" y="20" width="80" height="80" as="geometry" />
        </mxCell>
        <mxCell id="cEOoGB9jimii8mQ0SRFu-2" value="Клиент инициировал возврат" style="rounded=1;whiteSpace=wrap;html=1;" vertex="1" parent="1">
          <mxGeometry x="296" y="130" width="236" height="60" as="geometry" />
        </mxCell>
        <mxCell id="cEOoGB9jimii8mQ0SRFu-3" value="" style="ellipse;whiteSpace=wrap;html=1;aspect=fixed;" vertex="1" parent="1">
          <mxGeometry x="-1570" y="40" width="80" height="80" as="geometry" />
        </mxCell>
        <mxCell id="cEOoGB9jimii8mQ0SRFu-17" value="" style="edgeStyle=orthogonalEdgeStyle;rounded=0;orthogonalLoop=1;jettySize=auto;html=1;" edge="1" parent="1" source="cEOoGB9jimii8mQ0SRFu-4" target="cEOoGB9jimii8mQ0SRFu-15">
          <mxGeometry relative="1" as="geometry" />
        </mxCell>
        <mxCell id="cEOoGB9jimii8mQ0SRFu-4" value="Доставили в ПВЗ 10 комплектов шин" style="rounded=1;whiteSpace=wrap;html=1;" vertex="1" parent="1">
          <mxGeometry x="-1600" y="430" width="140" height="60" as="geometry" />
        </mxCell>
        <mxCell id="cEOoGB9jimii8mQ0SRFu-9" value="" style="edgeStyle=orthogonalEdgeStyle;rounded=0;orthogonalLoop=1;jettySize=auto;html=1;" edge="1" parent="1" source="cEOoGB9jimii8mQ0SRFu-5" target="cEOoGB9jimii8mQ0SRFu-8">
          <mxGeometry relative="1" as="geometry" />
        </mxCell>
        <mxCell id="cEOoGB9jimii8mQ0SRFu-10" value="Задание на сборку заказа" style="edgeLabel;html=1;align=center;verticalAlign=middle;resizable=0;points=[];" vertex="1" connectable="0" parent="cEOoGB9jimii8mQ0SRFu-9">
          <mxGeometry x="-0.0333" y="2" relative="1" as="geometry">
            <mxPoint as="offset" />
          </mxGeometry>
        </mxCell>
        <mxCell id="cEOoGB9jimii8mQ0SRFu-5" value="Заказ клиентов с выдачей на ПВЗ" style="rounded=1;whiteSpace=wrap;html=1;" vertex="1" parent="1">
          <mxGeometry x="-1600" y="160" width="140" height="60" as="geometry" />
        </mxCell>
        <mxCell id="cEOoGB9jimii8mQ0SRFu-11" value="Задание на перевозку" style="edgeStyle=orthogonalEdgeStyle;rounded=0;orthogonalLoop=1;jettySize=auto;html=1;" edge="1" parent="1" source="cEOoGB9jimii8mQ0SRFu-8" target="cEOoGB9jimii8mQ0SRFu-4">
          <mxGeometry relative="1" as="geometry">
            <Array as="points">
              <mxPoint x="-1530" y="390" />
              <mxPoint x="-1530" y="390" />
            </Array>
          </mxGeometry>
        </mxCell>
        <mxCell id="cEOoGB9jimii8mQ0SRFu-8" value="Сборка заказа на складе" style="rounded=1;whiteSpace=wrap;html=1;" vertex="1" parent="1">
          <mxGeometry x="-1600" y="280" width="140" height="60" as="geometry" />
        </mxCell>
        <mxCell id="cEOoGB9jimii8mQ0SRFu-12" value="Приняли на ПВЗ" style="rounded=1;whiteSpace=wrap;html=1;" vertex="1" parent="1">
          <mxGeometry x="-1600" y="650" width="140" height="60" as="geometry" />
        </mxCell>
        <mxCell id="cEOoGB9jimii8mQ0SRFu-14" value="Нет процесса" style="whiteSpace=wrap;html=1;shape=mxgraph.basic.document" vertex="1" parent="1">
          <mxGeometry x="-1790" y="630" width="160" height="100" as="geometry" />
        </mxCell>
        <mxCell id="cEOoGB9jimii8mQ0SRFu-18" value="" style="edgeStyle=orthogonalEdgeStyle;rounded=0;orthogonalLoop=1;jettySize=auto;html=1;" edge="1" parent="1" source="cEOoGB9jimii8mQ0SRFu-15" target="cEOoGB9jimii8mQ0SRFu-12">
          <mxGeometry relative="1" as="geometry" />
        </mxCell>
        <mxCell id="cEOoGB9jimii8mQ0SRFu-15" value="Сдали доставку на ПВЗ" style="rounded=1;whiteSpace=wrap;html=1;" vertex="1" parent="1">
          <mxGeometry x="-1600" y="540" width="140" height="60" as="geometry" />
        </mxCell>
        <mxCell id="cEOoGB9jimii8mQ0SRFu-16" value="Нет процесса" style="whiteSpace=wrap;html=1;shape=mxgraph.basic.document" vertex="1" parent="1">
          <mxGeometry x="-1790" y="520" width="160" height="100" as="geometry" />
        </mxCell>
        <mxCell id="cEOoGB9jimii8mQ0SRFu-19" value="Фиксация продажи товара" style="rounded=1;whiteSpace=wrap;html=1;" vertex="1" parent="1">
          <mxGeometry x="-1350" y="650" width="140" height="60" as="geometry" />
        </mxCell>
        <mxCell id="cEOoGB9jimii8mQ0SRFu-22" value="&lt;div&gt;&lt;br&gt;&lt;/div&gt;Нет процесса" style="whiteSpace=wrap;html=1;shape=mxgraph.basic.document" vertex="1" parent="1">
          <mxGeometry x="-1270" y="520" width="160" height="100" as="geometry" />
        </mxCell>
        <mxCell id="cEOoGB9jimii8mQ0SRFu-25" style="edgeStyle=orthogonalEdgeStyle;rounded=0;orthogonalLoop=1;jettySize=auto;html=1;" edge="1" parent="1" source="cEOoGB9jimii8mQ0SRFu-24" target="cEOoGB9jimii8mQ0SRFu-19">
          <mxGeometry relative="1" as="geometry" />
        </mxCell>
        <mxCell id="cEOoGB9jimii8mQ0SRFu-24" value="Клиент приехал за товаром" style="rounded=1;whiteSpace=wrap;html=1;" vertex="1" parent="1">
          <mxGeometry x="-1350" y="420" width="140" height="60" as="geometry" />
        </mxCell>
        <mxCell id="cEOoGB9jimii8mQ0SRFu-31" style="edgeStyle=orthogonalEdgeStyle;rounded=0;orthogonalLoop=1;jettySize=auto;html=1;" edge="1" parent="1" source="cEOoGB9jimii8mQ0SRFu-26" target="cEOoGB9jimii8mQ0SRFu-29">
          <mxGeometry relative="1" as="geometry" />
        </mxCell>
        <mxCell id="cEOoGB9jimii8mQ0SRFu-26" value="Клиент попросил отложить товар" style="rounded=1;whiteSpace=wrap;html=1;" vertex="1" parent="1">
          <mxGeometry x="-1100" y="420" width="140" height="60" as="geometry" />
        </mxCell>
        <mxCell id="cEOoGB9jimii8mQ0SRFu-30" style="edgeStyle=orthogonalEdgeStyle;rounded=0;orthogonalLoop=1;jettySize=auto;html=1;entryX=0.5;entryY=0;entryDx=0;entryDy=0;" edge="1" parent="1" source="cEOoGB9jimii8mQ0SRFu-27" target="cEOoGB9jimii8mQ0SRFu-28">
          <mxGeometry relative="1" as="geometry" />
        </mxCell>
        <mxCell id="cEOoGB9jimii8mQ0SRFu-27" value="Клиент просто не приехал за товаром" style="rounded=1;whiteSpace=wrap;html=1;" vertex="1" parent="1">
          <mxGeometry x="-850" y="420" width="140" height="60" as="geometry" />
        </mxCell>
        <mxCell id="cEOoGB9jimii8mQ0SRFu-28" value="Забираем товар обратно" style="rounded=1;whiteSpace=wrap;html=1;" vertex="1" parent="1">
          <mxGeometry x="-850" y="650" width="140" height="60" as="geometry" />
        </mxCell>
        <mxCell id="cEOoGB9jimii8mQ0SRFu-29" value="Откладываем и не забираем товар" style="rounded=1;whiteSpace=wrap;html=1;" vertex="1" parent="1">
          <mxGeometry x="-1100" y="650" width="140" height="60" as="geometry" />
        </mxCell>
      </root>
    </mxGraphModel>
  </diagram>
</mxfile>
